<svg width="24" height="25" viewBox="0 0 24 25" fill="none" xmlns="http://www.w3.org/2000/svg">
<path d="M4.00098 3.5H20.001C20.5533 3.5 21.001 3.94772 21.001 4.5V20.5C21.001 21.0523 20.5533 21.5 20.001 21.5H4.00098C3.44869 21.5 3.00098 21.0523 3.00098 20.5V4.5C3.00098 3.94772 3.44869 3.5 4.00098 3.5ZM5.00098 5.5V19.5H19.001V5.5H5.00098ZM7.50098 9.5C6.67255 9.5 6.00098 8.82843 6.00098 8C6.00098 7.17157 6.67255 6.5 7.50098 6.5C8.3294 6.5 9.00098 7.17157 9.00098 8C9.00098 8.82843 8.3294 9.5 7.50098 9.5ZM6.50098 10.5H8.50098V18H6.50098V10.5ZM12.001 10.9295C12.5854 10.3653 13.2665 10 14.001 10C16.072 10 17.501 11.6789 17.501 13.75V18H15.501V13.75C15.501 12.7835 14.7175 12 13.751 12C12.7845 12 12.001 12.7835 12.001 13.75V18H10.001V10.5H12.001V10.9295Z" fill="#333333"/>
</svg>
