<svg width="150" height="33" viewBox="0 0 150 33" fill="none" xmlns="http://www.w3.org/2000/svg">
<g clip-path="url(#clip0_2257_137)">
<path d="M27.1643 8.58542V0.543095H0V8.58542H8.7695L8.7733 32.1506H18.3891L18.3853 8.58542H27.1643Z" fill="#054164"/>
<path d="M35.1542 23.942C35.0078 26.3228 33.4635 27.5036 31.4893 27.4921C29.9108 27.4826 28.7773 26.4183 28.783 25.3578C28.7906 23.8159 29.8024 23.3382 31.7385 22.9064C32.9214 22.6484 34.1101 22.3465 35.1656 21.823L35.1542 23.942ZM43.4768 27.0336L43.5281 17.6403C43.5547 13.2303 43.6689 8.6885 32.7845 8.62545C27.3832 8.59487 21.322 9.61903 21.0234 16.0544L29.0987 16.1003C29.1462 15.1315 29.6825 13.7692 32.3604 13.7825C33.7639 13.7902 35.2075 14.373 35.198 15.9188C35.1903 17.3728 34.0036 17.7187 32.8168 17.9346C28.3817 18.7447 19.9545 18.4295 19.9108 25.6616C19.886 30.4691 23.5148 32.6053 27.9024 32.632C30.7134 32.6473 33.395 32.0474 35.2474 29.9417H35.3368C35.2873 30.557 35.4148 31.4856 35.6297 32.1047L44.4962 32.1563C43.5414 30.6945 43.4654 28.7513 43.4768 27.0336Z" fill="#054164"/>
<path d="M56.8066 26.4508C53.6913 26.4336 53.0066 23.472 53.0218 20.7377C53.0371 18.0493 53.756 15.0991 56.8712 15.1182C59.9884 15.1335 60.673 18.0951 60.6578 20.7836C60.6426 23.5178 59.9237 26.4661 56.8066 26.4508ZM59.7202 8.78217C57.1299 8.7688 54.7963 9.90187 53.4707 11.8336H53.3832L53.446 0.493362H44.7563V32.1506H52.9553L52.9705 29.6876H53.058C54.1478 31.1513 55.4543 32.7888 59.7126 32.8155C66.1618 32.8518 69.3151 26.4757 69.3494 20.7453C69.3798 15.3647 67.3543 8.82803 59.7202 8.78217Z" fill="#054164"/>
<path d="M103.043 18.2309C99.7491 18.2118 99.3307 14.9463 99.3459 12.5216C99.3593 10.0968 99.8176 6.87913 103.108 6.89824C106.398 6.91543 106.818 10.1389 106.805 12.5636C106.792 14.9902 106.331 18.25 103.043 18.2309ZM81.476 18.2328C78.1839 18.2118 77.7655 14.9463 77.7788 12.5216C77.794 10.0987 78.2505 6.88104 81.5445 6.90015C84.8366 6.91734 85.255 10.1389 85.2417 12.5655C85.2265 14.9902 84.7663 18.25 81.476 18.2328ZM103.146 0.548832C97.7275 0.51635 94.1805 2.75957 92.2976 6.01929C90.4319 2.80351 86.9306 0.579403 81.5806 0.548832C73.0223 0.497242 69.1291 6.11674 69.0911 12.4681C69.0531 18.8175 72.8834 24.5287 81.4418 24.5784C86.8621 24.6089 90.4072 22.3485 92.2919 19.0735C94.1558 22.3027 97.659 24.5478 103.007 24.5803C111.565 24.628 115.462 18.9627 115.498 12.6133C115.533 6.26578 111.704 0.598511 103.146 0.548832Z" fill="#054164"/>
<path d="M116.434 32.1506H124.939V0.550739H116.434V32.1506Z" fill="#054164"/>
<path d="M140.766 23.8619C140.622 26.2446 139.079 27.4235 137.103 27.4139C135.525 27.4044 134.389 26.3401 134.397 25.2815C134.406 23.7396 135.414 23.26 137.352 22.8281C138.535 22.5721 139.724 22.2683 140.78 21.7486L140.766 23.8619ZM149.144 26.9534V17.5602C149.171 13.1502 149.283 8.60838 138.398 8.54724C132.999 8.51284 126.936 9.537 126.635 15.9743L134.716 16.0182C134.764 15.0495 135.298 13.6871 137.976 13.7005C139.384 13.7082 140.825 14.2909 140.816 15.8348C140.808 17.2889 139.619 17.6367 138.435 17.8507C133.996 18.6627 125.574 18.3455 125.53 25.5777C125.502 30.3851 129.133 32.5213 133.522 32.55C136.333 32.5653 139.011 31.9634 140.865 29.8578L140.955 29.8597C140.905 30.4749 141.052 31.5297 141.266 32.1488H150.002C149.039 30.6909 149.136 28.6731 149.144 26.9534Z" fill="#054164"/>
<path d="M72.3489 24.5821L72.3032 32.2098C79.0891 35.4256 84.4333 36.9561 91.8487 37C98.6536 37.0402 105.483 35.3472 111.78 32.2098L111.822 24.5821C104.785 27.2743 99.2279 28.6654 91.9 28.6214C84.9221 28.5813 78.5185 27.3508 72.3489 24.5821Z" fill="#054164"/>
</g>
<defs>
<clipPath id="clip0_2257_137">
<rect width="150" height="36.5" fill="white" transform="translate(0 0.5)"/>
</clipPath>
</defs>
</svg>
