<svg width="150" height="21" viewBox="0 0 150 21" fill="none" xmlns="http://www.w3.org/2000/svg">
<g clip-path="url(#clip0_2257_157)">
<path d="M139.775 0.5L134.662 5.625L139.775 10.75L134.662 15.875L139.775 21L150 10.75L139.775 0.5Z" fill="#ED1D24"/>
<path d="M129.549 0.5L119.323 10.75L129.549 21L134.635 15.875L129.549 10.75L134.635 5.625L129.549 0.5Z" fill="#ED1D24"/>
<path d="M2.28107 15.8487V8.04292H0V5.62497H7.34137V8.04292H5.0603V15.8487H2.28107ZM8.70477 15.8487V5.62497H14.9449V7.85894H11.4316V9.64612H14.7614V11.8275H11.4316V13.5621H14.9712V15.8487H8.70477ZM24.2003 6.0192V9.06791C23.807 8.6474 23.44 8.33202 23.0729 8.14804C22.7058 7.93779 22.2863 7.85894 21.8668 7.85894C21.054 7.85894 20.4248 8.14804 19.9266 8.67368C19.4022 9.19933 19.14 9.90894 19.14 10.8025C19.14 11.6173 19.4022 12.3006 19.9004 12.8525C20.3985 13.4045 21.054 13.6673 21.8406 13.6673C22.2601 13.6673 22.6796 13.5621 23.0467 13.3782C23.4137 13.1942 23.807 12.8788 24.1741 12.432V15.4807C23.7284 15.691 23.2826 15.8487 22.8631 15.9538C22.4174 16.0589 21.9979 16.1115 21.526 16.1115C20.9754 16.1115 20.451 16.0589 19.979 15.9012C19.5071 15.7698 19.0614 15.5596 18.6681 15.2968C17.9077 14.7974 17.3309 14.1404 16.9376 13.3782C16.5443 12.5897 16.3346 11.7224 16.3346 10.75C16.3346 9.9615 16.4657 9.25189 16.7016 8.62112C16.9376 7.99035 17.3309 7.41215 17.8553 6.8865C18.3272 6.38715 18.8778 6.0192 19.4809 5.78266C20.0839 5.54612 20.7656 5.41471 21.4997 5.41471C21.9455 5.41471 22.3912 5.46727 22.8369 5.5724C23.3089 5.65125 23.7546 5.80894 24.2003 6.0192ZM25.7472 15.8487V5.62497H28.5265V9.59356H32.2496V5.62497H35.0288V15.8487H32.2496V11.6961H28.5265V15.8487H25.7472ZM44.5988 6.0192V9.06791C44.2318 8.6474 43.8385 8.33202 43.4714 8.14804C43.1044 7.93779 42.6848 7.85894 42.2653 7.85894C41.4525 7.85894 40.8233 8.14804 40.3251 8.67368C39.827 9.22561 39.591 9.93522 39.591 10.8025C39.591 11.6173 39.8532 12.3006 40.3513 12.8525C40.8495 13.4045 41.505 13.6673 42.2653 13.6673C42.6848 13.6673 43.1044 13.5621 43.4714 13.3782C43.8647 13.1942 44.2318 12.8788 44.5988 12.432V15.4807C44.1531 15.691 43.7336 15.8487 43.2879 15.9538C42.8422 16.0589 42.3964 16.1115 41.9769 16.1115C41.4263 16.1115 40.9019 16.0589 40.43 15.9012C39.958 15.7698 39.5123 15.5596 39.119 15.2968C38.3587 14.7974 37.7819 14.1404 37.3886 13.3782C36.9953 12.5897 36.7855 11.7224 36.7855 10.75C36.7855 9.9615 36.9166 9.25189 37.1788 8.62112C37.4148 7.99035 37.8081 7.41215 38.3325 6.8865C38.8306 6.38715 39.355 6.0192 39.958 5.78266C40.5611 5.54612 41.2428 5.41471 41.9769 5.41471C42.4227 5.41471 42.8684 5.46727 43.2879 5.5724C43.7074 5.65125 44.1531 5.80894 44.5988 6.0192ZM56.6335 10.75C56.6335 11.4859 56.5024 12.1692 56.2139 12.8262C55.9518 13.457 55.5585 14.0352 55.0341 14.5609C54.5097 15.0602 53.9329 15.4545 53.2512 15.7173C52.5957 15.9801 51.8878 16.1378 51.1799 16.1378C50.4457 16.1378 49.764 16.0064 49.0823 15.7173C48.4268 15.4545 47.8238 15.0602 47.3256 14.5609C46.8013 14.0615 46.408 13.4833 46.1196 12.8262C45.8574 12.1955 45.7263 11.4859 45.7263 10.7762C45.7263 10.0404 45.8574 9.35702 46.1196 8.69997C46.3817 8.04292 46.8013 7.49099 47.3256 6.96535C47.8238 6.46599 48.4268 6.07176 49.0823 5.80894C49.7378 5.54612 50.4457 5.38843 51.1799 5.38843C51.914 5.38843 52.5957 5.51984 53.2774 5.80894C53.9591 6.07176 54.5359 6.46599 55.0603 6.96535C55.5585 7.46471 55.9518 8.04292 56.2402 8.69997C56.5024 9.33074 56.6335 10.0404 56.6335 10.75ZM51.1799 13.7724C51.9402 13.7724 52.5957 13.4833 53.0939 12.9314C53.592 12.3532 53.8542 11.6436 53.8542 10.7762C53.8542 9.90894 53.592 9.19933 53.0939 8.62112C52.5957 8.04291 51.9402 7.75381 51.2061 7.75381C50.4457 7.75381 49.7902 8.04291 49.2921 8.62112C48.7677 9.17304 48.5055 9.90894 48.5055 10.75C48.5055 11.6173 48.7415 12.3532 49.2396 12.9051C49.764 13.4833 50.3933 13.7724 51.1799 13.7724ZM70.0839 15.8487H67.4882L66.8852 11.4333C66.8327 11.1179 66.8065 10.7762 66.7803 10.4083C66.7278 10.0404 66.7016 9.61984 66.6754 9.14676C66.623 9.59356 66.4919 10.1192 66.2821 10.7762C66.2297 10.9077 66.2035 11.0128 66.2035 11.0654L64.8138 15.8487H62.9523L61.5627 11.0654C61.5364 10.9865 61.5102 10.9077 61.484 10.7762C61.2743 10.1192 61.1694 9.59356 61.0907 9.17304C61.0645 9.56727 61.0383 9.93522 60.9858 10.3295C60.9334 10.7237 60.9072 11.0916 60.8547 11.4596L60.2517 15.875H57.6822L59.2554 5.65125H62.0084L63.5553 10.9339C63.5553 10.9602 63.5815 11.0391 63.6078 11.1179C63.7651 11.591 63.8437 11.9852 63.8962 12.3269C63.9224 12.1429 63.9486 11.9327 64.0011 11.7224C64.0535 11.5121 64.1321 11.223 64.2108 10.9339L65.7577 5.67753H68.5107L70.0839 15.8487Z" fill="#ED1D24"/>
<path d="M74.1479 9.725H74.6985C75.3802 9.725 75.8522 9.64615 76.1144 9.48846C76.3766 9.33077 76.5077 9.06795 76.5077 8.7C76.5077 8.30577 76.3766 8.04295 76.1406 7.88526C75.9046 7.72756 75.4327 7.64872 74.751 7.64872H74.1479V9.725ZM71.5522 15.875V5.625H74.3577C75.5113 5.625 76.3241 5.65128 76.7699 5.73013C77.2156 5.80897 77.6089 5.94038 77.9497 6.12436C78.3168 6.33462 78.6052 6.62372 78.815 6.96538C79.0247 7.30705 79.1034 7.72756 79.1034 8.17436C79.1034 8.75256 78.9461 9.22564 78.6576 9.56731C78.3692 9.90897 77.8973 10.1718 77.2418 10.3558C77.976 10.4083 78.5266 10.6712 78.9461 11.1179C79.3656 11.5647 79.5491 12.1692 79.5491 12.9314C79.5491 13.4833 79.4442 13.9564 79.2083 14.3769C78.9723 14.7974 78.6576 15.1128 78.2119 15.3494C77.8711 15.5333 77.4253 15.6647 76.9272 15.7436C76.429 15.8224 75.59 15.875 74.4101 15.875H71.5522ZM74.1479 13.7724H75.1181C75.7735 13.7724 76.2455 13.6936 76.5077 13.5096C76.7699 13.3519 76.9272 13.0628 76.9272 12.6949C76.9272 12.2744 76.7961 11.959 76.5601 11.8013C76.2979 11.6173 75.8522 11.5385 75.1705 11.5385H74.1479V13.7724ZM83.9277 12.0378H86.7069L85.6582 8.67372C85.632 8.56859 85.5795 8.4109 85.5271 8.17436C85.4746 7.93782 85.396 7.64872 85.3173 7.28077C85.2649 7.54359 85.2125 7.78013 85.1338 7.99038C85.0814 8.22692 85.0289 8.43718 84.9503 8.64744L83.9277 12.0378ZM80.0473 15.875L83.5606 5.65128H87.0478L90.5874 15.875H87.8081L87.2838 14.0353H83.3247L82.8003 15.875H80.0473ZM91.5575 15.875V5.625H94.2318L98.0861 10.8814C98.1647 10.9865 98.2696 11.1968 98.4531 11.5122C98.6105 11.8276 98.794 12.2218 99.0037 12.6686C98.9513 12.2481 98.8989 11.8538 98.8726 11.5385C98.8464 11.2231 98.8202 10.9077 98.8202 10.6712V5.625H101.495V15.8487H98.8464L94.9922 10.566C94.9135 10.4609 94.7824 10.2506 94.6251 9.90897C94.4678 9.59359 94.2843 9.19936 94.0745 8.75256C94.127 9.17308 94.1794 9.56731 94.2056 9.88269C94.2318 10.2244 94.2318 10.5135 94.2318 10.7763V15.8224H91.5575V15.875ZM103.723 15.875V5.625H106.476V10.2769L109.701 5.625H112.952L109.177 10.6186L113.267 15.875H109.78L106.476 11.2756V15.875H103.723Z" fill="black"/>
</g>
<defs>
<clipPath id="clip0_2257_157">
<rect width="150" height="20.5" fill="white" transform="translate(0 0.5)"/>
</clipPath>
</defs>
</svg>
