<svg width="150" height="22" viewBox="0 0 150 22" fill="none" xmlns="http://www.w3.org/2000/svg">
<g clip-path="url(#clip0_2257_126)">
<path d="M86.3403 8.91262L84.6344 8.48262H84.5956C82.3858 7.93535 80.6799 7.54444 80.6799 6.21535C80.6799 4.88626 81.9981 4.41716 83.2387 4.41716C83.9366 4.41716 85.1772 4.53444 85.9138 5.31626C86.2627 5.70716 86.4566 6.17626 86.4566 6.72353H91.109C90.9926 2.38444 86.9994 0.820801 83.5876 0.820801C79.7882 0.820801 75.95 2.57989 75.95 6.52807C75.95 9.88989 78.5863 11.1408 81.4553 11.9617C81.9593 12.1181 82.4245 12.2353 82.9285 12.3526C85.1772 12.939 87.0769 13.4081 87.0769 14.9326C87.0769 16.4963 85.4098 17.0826 83.859 17.0826C81.4553 17.0826 80.2534 16.1444 80.0984 14.0726H75.4072C75.4848 18.1772 78.5476 20.6399 83.5489 20.6399C85.9914 20.6399 91.7293 20.0144 91.7293 14.3463C91.768 10.9063 89.0154 9.65535 86.3403 8.91262Z" fill="#105AB2"/>
<path d="M0 5.23828H5.69915V20.2101H10.3903V5.23828H16.0894V1.21191H0V5.23828Z" fill="#105AB2"/>
<path d="M23.1067 12.4701H32.4502V8.71737H23.1067V4.96464H33.3419V1.21191H18.4155V20.2492H33.6133V16.1837H23.1067V12.4701Z" fill="#105AB2"/>
<path d="M68.0022 8.71737H60.9849V1.21191H56.3325V20.2492H60.9849V12.7828H68.0022V20.2492H72.6546V1.21191H68.0022V8.71737Z" fill="#105AB2"/>
<path d="M53.5024 13.6426H48.8888C48.5787 15.4408 47.183 16.5354 45.1282 16.6136C45.0506 16.6136 44.9731 16.6136 44.8956 16.6136C43.5386 16.6136 42.5306 16.1445 41.8327 15.3626C40.7472 14.229 40.3207 12.4308 40.3207 10.7108C40.3207 8.99083 40.7472 7.23174 41.8327 6.05901C42.5694 5.31628 43.5774 4.8081 44.8956 4.8081C44.9731 4.8081 45.0506 4.8081 45.1282 4.8081C47.1442 4.88628 48.4624 6.01992 48.8113 7.93537H53.5024C53.5024 7.89628 53.5024 7.8181 53.4637 7.77901C53.1923 5.82447 52.3781 4.18265 51.0987 2.97083C49.5867 1.56356 47.4931 0.781738 44.9731 0.781738C44.6242 0.781738 44.314 0.781738 43.9651 0.820829C39.0413 1.28992 35.5908 5.27719 35.5908 10.6717C35.5908 16.0272 39.0413 20.0536 43.9651 20.5226C44.314 20.5617 44.6242 20.5617 44.9731 20.5617C47.4931 20.5617 49.5867 19.7799 51.0987 18.3726C52.4944 17.1999 53.4249 15.5581 53.5412 13.5645L53.5024 13.6426Z" fill="#105AB2"/>
<path d="M133.911 1.21191V5.23828H139.649V20.2101H144.301V5.23828H150V1.21191H133.911Z" fill="#105AB2"/>
<path d="M123.094 0L116.038 2.58L112.277 9.14727L113.595 16.6136L119.333 21.5H126.854L132.631 16.6136L133.949 9.14727L130.188 2.58L123.094 0ZM126.738 17.4736H119.449L115.805 11.1018L119.449 4.73H126.738L130.382 11.1018L126.738 17.4736Z" fill="#105AB2"/>
<path d="M103.67 1.21191H94.7529V20.2492H99.4053V13.7601H103.67C108.167 13.7601 110.416 11.571 110.416 7.27101C110.455 1.83737 105.725 1.21191 103.67 1.21191ZM102.933 10.2028H99.4441V4.92555H102.933C104.756 4.92555 105.764 5.90282 105.764 7.62282C105.764 9.30373 104.794 10.2028 102.933 10.2028Z" fill="#105AB2"/>
<path d="M119.45 13.2517H126.738L123.094 6.84082L119.45 13.2517Z" fill="#105AB2"/>
</g>
<defs>
<clipPath id="clip0_2257_126">
<rect width="150" height="21.5" fill="white"/>
</clipPath>
</defs>
</svg>
