<svg width="150" height="34" viewBox="0 0 150 34" fill="none" xmlns="http://www.w3.org/2000/svg">
<g clip-path="url(#clip0_2257_150)">
<path d="M14.7149 3.81096H9.24499V14.052H5.46995V3.81096H0V0.730957H14.7149V3.81096Z" fill="#4B4D4F"/>
<path d="M16.564 14.052V0.730957H29.3529V3.57996H20.339V5.88996H28.8136V8.58496H20.339V11.203H29.8151V14.052H16.564Z" fill="#4B4D4F"/>
<path d="M31.4331 7.661C31.4331 5.967 31.7413 4.658 32.4346 3.58C33.051 2.502 34.0525 1.732 35.3622 1.27C36.6719 0.731 38.2128 0.5 40.0618 0.5C40.6781 0.5 41.2174 0.5 41.7567 0.577C42.2189 0.577 42.6812 0.654 43.1434 0.731C43.6057 0.808 43.9909 0.885 44.3761 0.962C44.7613 1.039 45.2236 1.116 45.6858 1.27L44.9154 3.965C44.3761 3.888 43.8368 3.734 43.2975 3.657C42.7582 3.58 42.296 3.503 41.7567 3.503C41.2944 3.503 40.7551 3.426 40.2929 3.426C39.4454 3.426 38.675 3.503 38.0587 3.657C37.4424 3.811 36.9031 4.042 36.5179 4.427C36.1326 4.735 35.8245 5.197 35.6704 5.736C35.4393 6.275 35.3622 6.891 35.3622 7.661C35.3622 8.354 35.4393 8.893 35.6704 9.355C35.8245 9.817 36.1326 10.202 36.5179 10.51C36.9031 10.818 37.4424 11.049 37.9816 11.203C38.598 11.357 39.2913 11.434 40.1388 11.434C40.9863 11.434 41.9108 11.357 42.7582 11.28C43.6827 11.203 44.5302 11.049 45.3776 10.818L46.071 13.436C45.6088 13.59 45.2236 13.667 44.7613 13.744C44.2991 13.821 43.8368 13.898 43.2975 13.975C42.7582 14.052 42.2189 14.129 41.6026 14.129C40.9863 14.206 40.2929 14.206 39.5225 14.206C38.2128 14.206 37.0571 14.052 35.9786 13.821C34.977 13.59 34.1296 13.205 33.4362 12.666C32.7428 12.127 32.2035 11.434 31.8954 10.664C31.5872 9.894 31.4331 8.816 31.4331 7.661Z" fill="#4B4D4F"/>
<path d="M48.1509 14.052V0.730957H52.003V6.42896H59.3219V0.730957H63.174V14.052H59.3219V9.50896H52.003V14.052H48.1509Z" fill="#4B4D4F"/>
<path fill-rule="evenodd" clip-rule="evenodd" d="M32.1264 25.679H42.3729C44.6841 25.679 46.6102 27.527 46.6102 29.76V39H31.2789C29.8921 39 28.7365 37.922 28.7365 36.536V33.302C28.7365 32.07 29.8151 30.992 31.1248 30.992H39.5994L38.6749 32.84H32.4345C32.1263 32.84 31.8952 33.071 31.8952 33.302V35.92C31.8952 36.228 32.2034 36.382 32.4345 36.382H43.2203V30.299C43.2203 29.144 42.1418 28.22 40.9861 28.22H30.8937L32.1264 25.679ZM116.102 20.751V39H101.233C99.8459 39 98.6903 37.922 98.6903 36.536V29.683C98.6903 27.45 100.616 25.602 102.928 25.602H111.402L110.169 28.22H104.237C103.082 28.22 102.003 29.144 102.003 30.299V35.92C102.003 36.228 102.311 36.382 102.542 36.382H112.866V20.751H116.102ZM63.7904 39H67.1032V29.683C67.1032 27.45 65.1772 25.602 62.8659 25.602H55.8552L54.6225 28.22H61.5562C62.7119 28.22 63.7904 29.144 63.7904 30.299V39ZM50.077 20.751V39H53.3898V20.751H50.077ZM22.5732 39H25.886V29.683C25.886 27.45 23.9599 25.602 21.6487 25.602H0V39H3.31279V28.759C3.31279 28.451 3.62096 28.22 3.85208 28.22H10.6317C10.9399 28.22 11.171 28.451 11.171 28.682V39H14.4838V28.759C14.4838 28.451 14.792 28.297 15.0231 28.297H20.1849C21.3405 28.297 22.4191 29.221 22.4191 30.376V39H22.5732ZM133.282 25.679H125.039C122.727 25.679 120.801 27.527 120.801 29.76V39H124.114V30.299C124.114 29.144 125.193 28.22 126.348 28.22H132.049L133.282 25.679ZM91.0632 25.679C93.3744 25.679 95.3005 27.527 95.3005 29.76V39H91.9877V30.299C91.9877 29.144 90.9091 28.22 89.7535 28.22H81.8182V39H78.5824V25.679C82.7427 25.679 86.9029 25.679 91.0632 25.679ZM71.1864 26.526L74.4992 24.678V39H71.1864V26.526ZM74.4992 22.753V20.751H71.1864V24.601L74.4992 22.753ZM135.593 25.679H145.84C148.151 25.679 150.077 27.527 150.077 29.76V39H134.823C133.436 39 132.28 37.922 132.28 36.536V33.302C132.28 32.07 133.359 30.992 134.669 30.992H143.143L142.219 32.84H135.978C135.67 32.84 135.439 33.071 135.439 33.302V35.92C135.439 36.228 135.747 36.382 135.978 36.382H146.764V30.299C146.764 29.144 145.686 28.22 144.53 28.22H134.361L135.593 25.679Z" fill="#E81738"/>
</g>
<defs>
<clipPath id="clip0_2257_150">
<rect width="150" height="38.5" fill="white" transform="translate(0 0.5)"/>
</clipPath>
</defs>
</svg>
