<svg width="150" height="41" viewBox="0 0 150 41" fill="none" xmlns="http://www.w3.org/2000/svg">
<g clip-path="url(#clip0_2257_147)">
<path d="M0 0H53.3981V53.5H0V0ZM5.53398 47.9555H47.8641V5.54455H5.53398V47.9555ZM26.8932 13.8127H32.4272V30.0086C32.4272 37.3527 28.301 41.73 21.2621 41.73C14.4175 41.73 10.3398 37.4014 10.3398 30.0086V13.8127H15.8738V30.0086C15.8738 34.0941 17.5728 36.5259 21.4078 36.5259C25.0971 36.5259 26.8932 34.1914 26.8932 30.0086V13.8127ZM42.9126 13.8127C42.9126 15.7582 41.5049 17.12 39.5146 17.12C37.5728 17.12 36.1165 15.7582 36.1165 13.8127C36.1165 11.8186 37.5243 10.4082 39.5146 10.4082C41.5049 10.4082 42.9126 11.77 42.9126 13.8127ZM36.7961 19.7464H42.3301V41.4868H36.7961V19.7464ZM79.3689 23.1023C79.3689 29.0359 75.4369 32.5864 69.4175 32.5864H64.4175V41.5355H58.8835V13.8127H69.4175C75.534 13.8127 79.3689 17.3632 79.3689 23.1023ZM73.7864 23.1023C73.7864 20.0868 72.0388 18.2873 68.8835 18.2873H64.466V28.1605H68.8835C72.0388 28.1118 73.7864 26.3609 73.7864 23.1023ZM97.9612 19.7464H103.495V41.4868H97.9612V39.055C96.5049 40.8059 94.1748 41.7786 90.9223 41.7786C85.0485 41.7786 80.8738 37.1582 80.8738 30.6409C80.8738 24.2209 84.9515 19.4545 90.9223 19.4545C94.0777 19.4545 96.5049 20.5732 97.9612 22.47V19.7464ZM97.9612 30.6409C97.9612 26.8959 95.7282 24.3182 92.233 24.3182C88.6893 24.3182 86.5049 26.7986 86.5049 30.6409C86.5049 34.24 88.4466 36.915 92.233 36.915C95.6311 36.8664 97.9612 34.4345 97.9612 30.6409ZM116.99 36.7691H119.175V41.4868H116.262C111.019 41.4868 108.738 39.0064 108.738 33.8509V24.4155H106.165V19.7464H108.738V13.8127H114.272V19.7464H119.126V24.4155H114.272V33.8995C114.272 35.7964 114.854 36.7691 116.99 36.7691ZM143.01 28.8414V41.4868H137.476V29.4736C137.476 26.1664 135.777 24.0264 132.524 24.0264C129.272 24.0264 127.33 26.2636 127.33 29.96V41.4868H121.796V12.4509H127.33V21.9836C128.689 20.33 130.874 19.4545 133.883 19.4545C139.029 19.4059 143.01 23.1509 143.01 28.8414ZM141.893 12.4509H144.806V13.0345H143.738V16.4877H143.01V13.0345H141.893V12.4509ZM150 12.4509V16.4877H149.32V13.4723L148.058 16.4877H147.524L146.214 13.4723V16.4877H145.631V12.4509H146.456L147.767 15.6123L149.126 12.4509H150Z" fill="#FA4616"/>
</g>
<defs>
<clipPath id="clip0_2257_147">
<rect width="150" height="53.5" fill="white"/>
</clipPath>
</defs>
</svg>
