<svg width="21" height="22" viewBox="0 0 21 22" fill="none" xmlns="http://www.w3.org/2000/svg">
<path d="M8.507 1.10426C7.10544 0.650546 5.58181 1.28165 4.91156 2.59355L4.10578 4.17072C4.01004 4.35812 3.85763 4.51053 3.67023 4.60627L2.09306 5.41205C0.781158 6.0823 0.150058 7.60593 0.603768 9.00749L1.14923 10.6925C1.21404 10.8927 1.21404 11.1083 1.14923 11.3085L0.603768 12.9935C0.150058 14.3951 0.781158 15.9187 2.09306 16.589L3.67023 17.3947C3.85763 17.4905 4.01004 17.6429 4.10578 17.8303L4.91156 19.4075C5.58181 20.7194 7.10544 21.3505 8.507 20.8968L10.192 20.3513C10.3922 20.2865 10.6078 20.2865 10.808 20.3513L12.493 20.8968C13.8946 21.3505 15.4182 20.7194 16.0885 19.4075L16.8942 17.8303C16.99 17.6429 17.1424 17.4905 17.3298 17.3947L18.907 16.589C20.2189 15.9187 20.85 14.3951 20.3963 12.9935L19.8508 11.3085C19.786 11.1083 19.786 10.8927 19.8508 10.6925L20.3963 9.00749C20.85 7.60593 20.2189 6.0823 18.907 5.41205L17.3298 4.60627C17.1424 4.51053 16.99 4.35812 16.8942 4.17072L16.0885 2.59355C15.4182 1.28165 13.8946 0.650546 12.493 1.10426L10.808 1.64972C10.6078 1.71452 10.3922 1.71453 10.192 1.64972L8.507 1.10426ZM5.25977 10.7578L6.67399 9.34349L9.5024 12.172L15.1593 6.51514L16.5735 7.92935L9.5024 15.0004L5.25977 10.7578Z" fill="#F97316"/>
</svg>
